<svg width="23" height="23" viewBox="0 0 23 23" fill="none" xmlns="http://www.w3.org/2000/svg">
<path d="M0 23.0002L1.96991 15.0673L14.0556 2.98169L20.0185 8.94466L7.93287 21.0303L0 23.0002ZM3.35417 15.8127L2.07639 20.9238L7.1875 19.6461L17.9421 8.89141L14.1088 5.05808L3.35417 15.8127Z" fill="white"/>
<path d="M6.65512 20.551C6.12271 18.4746 4.52549 16.8774 2.4491 16.345L2.82179 14.8542C5.43058 15.4931 7.45373 17.5163 8.09262 20.1251L6.65512 20.551Z" fill="white"/>
<path d="M6.49523 17.6229L5.43042 16.5048L16.0253 5.90991L17.0901 6.97473L6.49523 17.6229Z" fill="white"/>
<path d="M1.0647 21.9351L3.40729 21.3495C3.19432 20.4976 2.50219 19.8055 1.65034 19.5925L1.0647 21.9351Z" fill="white"/>
<path d="M20.6042 8.3588L14.6412 2.39583L17.0371 0L17.4098 0.053244C20.2848 0.425929 22.5741 2.71528 22.9468 5.59028L23 5.96297L20.6042 8.3588ZM16.8241 2.39583L20.6574 6.22917L21.4028 5.48381C20.9769 3.56714 19.4861 2.07639 17.5695 1.65047L16.8241 2.39583Z" fill="white"/>
</svg>
